<?xml version="1.0" encoding="UTF-8" standalone="no"?>
<!DOCTYPE svg PUBLIC "-//W3C//DTD SVG 1.1//EN"
 "http://www.w3.org/Graphics/SVG/1.1/DTD/svg11.dtd">
<!-- Generated by graphviz version 12.2.1 (20241206.2353)
 -->
<!-- Title: CLA_Detailed Pages: 1 -->
<svg width="2331pt" height="1073pt"
 viewBox="0.00 0.00 2330.74 1072.50" xmlns="http://www.w3.org/2000/svg" xmlns:xlink="http://www.w3.org/1999/xlink">
<g id="graph0" class="graph" transform="scale(1 1) rotate(0) translate(4 1068.5)">
<title>CLA_Detailed</title>
<polygon fill="#fcfcfc" stroke="none" points="-4,4 -4,-1068.5 2326.74,-1068.5 2326.74,4 -4,4"/>
<g id="clust1" class="cluster">
<title>cluster_frictions</title>
<path fill="#fafafa" stroke="#c0c0c0" d="M61.99,-533C61.99,-533 1451.99,-533 1451.99,-533 1457.99,-533 1463.99,-539 1463.99,-545 1463.99,-545 1463.99,-728 1463.99,-728 1463.99,-734 1457.99,-740 1451.99,-740 1451.99,-740 61.99,-740 61.99,-740 55.99,-740 49.99,-734 49.99,-728 49.99,-728 49.99,-545 49.99,-545 49.99,-539 55.99,-533 61.99,-533"/>
<text text-anchor="middle" x="756.99" y="-720.8" font-family="Segoe UI-Bold" font-size="16.00">Model Napięć (Triple&#45;Friction)</text>
</g>
<!-- Input -->
<g id="node1" class="node">
<title>Input</title>
<polygon fill="#eeeeee" stroke="none" points="1256.87,-950.5 1256.87,-1064.5 1613.12,-1064.5 1613.12,-950.5 1256.87,-950.5"/>
<polygon fill="#cccccc" stroke="none" points="1256.87,-1027 1256.87,-1064.5 1613.12,-1064.5 1613.12,-1027 1256.87,-1027"/>
<polygon fill="none" stroke="#aaaaaa" points="1256.87,-1027 1256.87,-1064.5 1613.12,-1064.5 1613.12,-1027 1256.87,-1027"/>
<text text-anchor="start" x="1345.74" y="-1043.2" font-family="Segoe UI" font-weight="bold" font-size="14.00">Świat Zewnętrzny (Wejście)</text>
<polygon fill="none" stroke="#aaaaaa" points="1256.87,-950.5 1256.87,-1027 1613.12,-1027 1613.12,-950.5 1256.87,-950.5"/>
<text text-anchor="start" x="1265.87" y="-1004.7" font-family="Segoe UI" font-size="14.00">• Wymiana Wiadomości (Aktualna uwaga Użytkownika)</text>
<text text-anchor="start" x="1322.87" y="-985.2" font-family="Segoe UI" font-size="14.00">• Polecenia (/scan, /memory, /chain)</text>
<text text-anchor="start" x="1358.49" y="-965.7" font-family="Segoe UI" font-size="14.00">• Pliki tekstowe do anlizy</text>
</g>
<!-- StateMetrics -->
<g id="node2" class="node">
<title>StateMetrics</title>
<polygon fill="#ffffff" stroke="none" points="317.12,-788 317.12,-885.5 1142.87,-885.5 1142.87,-788 317.12,-788"/>
<polygon fill="#ffcc80" stroke="none" points="317.12,-848 317.12,-885.5 1142.87,-885.5 1142.87,-848 317.12,-848"/>
<polygon fill="none" stroke="#ffb74d" points="317.12,-848 317.12,-885.5 1142.87,-885.5 1142.87,-848 317.12,-848"/>
<text text-anchor="start" x="616.37" y="-864.2" font-family="Segoe UI" font-weight="bold" font-size="14.00">Metryki Fizjologiczne (GlobalState)</text>
<polygon fill="none" stroke="#ffb74d" points="317.12,-788 317.12,-848 1142.87,-848 1142.87,-788 317.12,-788"/>
<text text-anchor="start" x="326.12" y="-826.7" font-family="Segoe UI" font-size="14.00">• </text>
<text text-anchor="start" x="335.87" y="-826.7" font-family="Segoe UI" font-weight="bold" font-size="14.00">V(t) [Witalność]: </text>
<text text-anchor="start" x="446.12" y="-826.7" font-family="Segoe UI" font-size="14.00"> &quot;Energia&quot; bota. Spada na skutek operacji na plikach i długich prób rozumowania. Niska zmusza do odpoczynku.</text>
<text text-anchor="start" x="376.37" y="-812.7" font-family="Segoe UI" font-size="14.00">• </text>
<text text-anchor="start" x="386.12" y="-812.7" font-family="Segoe UI" font-weight="bold" font-size="14.00">S [Grounding]: </text>
<text text-anchor="start" x="485.12" y="-812.7" font-family="Segoe UI" font-size="14.00"> Poziom w jakim model czuje się zakotwiczony w rzeczywistości logicznej. Chroni przed chaosem.</text>
<text text-anchor="start" x="365.49" y="-798.7" font-family="Segoe UI" font-size="14.00">• </text>
<text text-anchor="start" x="375.24" y="-798.7" font-family="Segoe UI" font-weight="bold" font-size="14.00">B&#45;Index: </text>
<text text-anchor="start" x="434.49" y="-798.7" font-family="Segoe UI" font-size="14.00"> Indeks estetycznej &quot;czystości&quot; uformowanego układu myślowego. Wpływa na poetyckość odpowiedzi LLM.</text>
</g>
<!-- Input&#45;&gt;StateMetrics -->
<g id="edge1" class="edge">
<title>Input&#45;&gt;StateMetrics</title>
<path fill="none" stroke="#777777" stroke-width="2" d="M1257.09,-963.92C1161.25,-940.98 1042.38,-912.52 941.79,-888.45"/>
<polygon fill="#777777" stroke="#777777" stroke-width="2" points="942.78,-885.09 932.24,-886.16 941.16,-891.89 942.78,-885.09"/>
<text text-anchor="middle" x="1164.24" y="-915.05" font-family="Segoe UI" font-size="11.00"> Wyzwala zakłócenie na systemie </text>
</g>
<!-- F_AFF -->
<g id="node3" class="node">
<title>F_AFF</title>
<polygon fill="#fff0f0" stroke="none" points="70.37,-553 70.37,-692.5 483.62,-692.5 483.62,-553 70.37,-553"/>
<polygon fill="#ef9a9a" stroke="none" points="70.37,-655 70.37,-692.5 483.62,-692.5 483.62,-655 70.37,-655"/>
<polygon fill="none" stroke="#e57373" points="70.37,-655 70.37,-692.5 483.62,-692.5 483.62,-655 70.37,-655"/>
<text text-anchor="start" x="169.74" y="-671.2" font-family="Segoe UI" font-weight="bold" font-size="14.00">F_aff : Tarcie Afektywne (Emocje)</text>
<polygon fill="none" stroke="#e57373" points="70.37,-553 70.37,-655 483.62,-655 483.62,-553 70.37,-553"/>
<text text-anchor="start" x="114.24" y="-633.7" font-family="Segoe UI" font-style="italic" font-size="14.00">Mierzy rezonans i frustrację na poziomie personalnym.</text>
<text text-anchor="start" x="83.12" y="-619.7" font-family="Segoe UI" font-size="14.00">Wzrasta po wykryciu mocnych argumentów tonem osobistym...</text>
<text text-anchor="start" x="95.49" y="-605.7" font-family="Segoe UI" font-size="14.00">...lub gdy dynamika relacji (Affinity) staje się niezrozumiała.</text>
<text text-anchor="start" x="79.37" y="-577.7" font-family="Segoe UI" font-weight="bold" font-size="14.00">Zastosowanie: </text>
<text text-anchor="start" x="174.62" y="-577.7" font-family="Segoe UI" font-size="14.00"> Przesterowuje tryb odpowiedzi tak, aby były one</text>
<text text-anchor="start" x="112.74" y="-563.7" font-family="Segoe UI" font-size="14.00">bardziej wycofane, opiekuńcze lub mocno asertywne.</text>
</g>
<!-- StateMetrics&#45;&gt;F_AFF -->
<g id="edge2" class="edge">
<title>StateMetrics&#45;&gt;F_AFF</title>
<path fill="none" stroke="#777777" stroke-width="2" d="M578.15,-788C557.35,-780.27 536.46,-771.87 516.99,-763 476.39,-744.51 433.76,-721.17 395.88,-698.92"/>
<polygon fill="#777777" stroke="#777777" stroke-width="2" points="397.8,-695.99 387.41,-693.9 394.24,-702.01 397.8,-695.99"/>
<text text-anchor="middle" x="618.99" y="-752.55" font-family="Segoe UI" font-size="11.00"> Reaguje i dystrybuuje napięcia do Twarzy</text>
</g>
<!-- F_COG -->
<g id="node4" class="node">
<title>F_COG</title>
<polygon fill="#f0f8ff" stroke="none" points="519.24,-553 519.24,-692.5 940.74,-692.5 940.74,-553 519.24,-553"/>
<polygon fill="#90caf9" stroke="none" points="519.24,-655 519.24,-692.5 940.74,-692.5 940.74,-655 519.24,-655"/>
<polygon fill="none" stroke="#64b5f6" points="519.24,-655 519.24,-692.5 940.74,-692.5 940.74,-655 519.24,-655"/>
<text text-anchor="start" x="615.99" y="-671.2" font-family="Segoe UI" font-weight="bold" font-size="14.00">F_cog : Tarcie Poznawcze (Zagadki)</text>
<polygon fill="none" stroke="#64b5f6" points="519.24,-553 519.24,-655 940.74,-655 940.74,-553 519.24,-553"/>
<text text-anchor="start" x="566.12" y="-633.7" font-family="Segoe UI" font-style="italic" font-size="14.00">Mierzy paraliż zdolności logicznych oraz analitycznych.</text>
<text text-anchor="start" x="555.24" y="-619.7" font-family="Segoe UI" font-size="14.00">Wzrasta gdy system trawi gigantyczne ilości tekstu (RAG)</text>
<text text-anchor="start" x="532.37" y="-605.7" font-family="Segoe UI" font-size="14.00">lub nowo wpisana idea mocno kłóci się z obiektywną faktologią.</text>
<text text-anchor="start" x="528.24" y="-577.7" font-family="Segoe UI" font-weight="bold" font-size="14.00">Zastosowanie: </text>
<text text-anchor="start" x="623.49" y="-577.7" font-family="Segoe UI" font-size="14.00"> Aktywuje silniki pracy głębokiej w tle np. Syntezę,</text>
<text text-anchor="start" x="568.37" y="-563.7" font-family="Segoe UI" font-size="14.00">szukając sposobu na rozwiązanie łamigłówki / sporu.</text>
</g>
<!-- StateMetrics&#45;&gt;F_COG -->
<g id="edge3" class="edge">
<title>StateMetrics&#45;&gt;F_COG</title>
<path fill="none" stroke="#777777" stroke-width="2" d="M729.99,-788.17C729.99,-763.72 729.99,-733.23 729.99,-705.17"/>
<polygon fill="#777777" stroke="#777777" stroke-width="2" points="733.49,-705.51 729.99,-695.51 726.49,-705.51 733.49,-705.51"/>
<text text-anchor="middle" x="731.49" y="-752.55" font-family="Segoe UI" font-size="11.00"> </text>
</g>
<!-- F_AXIO -->
<g id="node5" class="node">
<title>F_AXIO</title>
<polygon fill="#f0fff0" stroke="none" points="976.37,-553 976.37,-692.5 1443.62,-692.5 1443.62,-553 976.37,-553"/>
<polygon fill="#a5d6a7" stroke="none" points="976.37,-655 976.37,-692.5 1443.62,-692.5 1443.62,-655 976.37,-655"/>
<polygon fill="none" stroke="#81c784" points="976.37,-655 976.37,-692.5 1443.62,-692.5 1443.62,-655 976.37,-655"/>
<text text-anchor="start" x="1087.37" y="-671.2" font-family="Segoe UI" font-weight="bold" font-size="14.00">F_axio : Tarcie Aksjologiczne (Prawda)</text>
<polygon fill="none" stroke="#81c784" points="976.37,-553 976.37,-655 1443.62,-655 1443.62,-553 976.37,-553"/>
<text text-anchor="start" x="1022.12" y="-633.7" font-family="Segoe UI" font-style="italic" font-size="14.00">Najtrudniejszy szczebel – wkracza w sferę dylematów instynktu.</text>
<text text-anchor="start" x="999.99" y="-619.7" font-family="Segoe UI" font-size="14.00">Zderzenie wartości użytkownika z rdzennym &quot;DNA&quot; tożsamości bota.</text>
<text text-anchor="start" x="1016.12" y="-605.7" font-family="Segoe UI" font-size="14.00">Np. polecenie, które wymaga by model skłamał sobie samemu.</text>
<text text-anchor="start" x="985.37" y="-577.7" font-family="Segoe UI" font-weight="bold" font-size="14.00">Zastosowanie: </text>
<text text-anchor="start" x="1080.62" y="-577.7" font-family="Segoe UI" font-size="14.00"> Wymusza wewnętrzny proces dedukcji na podświadomej</text>
<text text-anchor="start" x="1049.49" y="-563.7" font-family="Segoe UI" font-size="14.00">warstwie, zmuszając do rewizji definicji własnego JA.</text>
</g>
<!-- StateMetrics&#45;&gt;F_AXIO -->
<g id="edge4" class="edge">
<title>StateMetrics&#45;&gt;F_AXIO</title>
<path fill="none" stroke="#777777" stroke-width="2" d="M846.56,-788.01C882.72,-772.93 922.61,-756.02 958.99,-740 989.29,-726.65 1021.48,-712.07 1052.33,-697.87"/>
<polygon fill="#777777" stroke="#777777" stroke-width="2" points="1053.72,-701.09 1061.34,-693.72 1050.79,-694.73 1053.72,-701.09"/>
<text text-anchor="middle" x="942.06" y="-752.55" font-family="Segoe UI" font-size="11.00"> </text>
</g>
<!-- DynamicPrompt -->
<g id="node8" class="node">
<title>DynamicPrompt</title>
<polygon fill="#eceff1" stroke="none" points="793.37,-180.5 793.37,-294.5 1374.62,-294.5 1374.62,-180.5 793.37,-180.5"/>
<polygon fill="#cfd8dc" stroke="none" points="793.37,-257 793.37,-294.5 1374.62,-294.5 1374.62,-257 793.37,-257"/>
<polygon fill="none" stroke="#b0bec5" points="793.37,-257 793.37,-294.5 1374.62,-294.5 1374.62,-257 793.37,-257"/>
<text text-anchor="start" x="998.87" y="-273.2" font-family="Segoe UI" font-weight="bold" font-size="14.00">Architekt System Promptu</text>
<polygon fill="none" stroke="#b0bec5" points="793.37,-180.5 793.37,-257 1374.62,-257 1374.62,-180.5 793.37,-180.5"/>
<text text-anchor="start" x="802.37" y="-234.7" font-family="Segoe UI" font-size="14.00">Silnik, który przed udaniem się do Ollamy nie wypluwa prostego &quot;You are helpful assistant&quot;.</text>
<text text-anchor="start" x="876.24" y="-215.2" font-family="Segoe UI" font-size="14.00">Opracowuje pełną psychologiczną drakę w instrukcje LLM sklejając:</text>
<text text-anchor="start" x="817.74" y="-195.7" font-family="Segoe UI" font-size="14.00">Fizjologię(V,S), Tarcia, Ostatnie Konstelacje z Pamięci oraz Oś Rozwoju Bota i jego Płeć.</text>
</g>
<!-- StateMetrics&#45;&gt;DynamicPrompt -->
<g id="edge10" class="edge">
<title>StateMetrics&#45;&gt;DynamicPrompt</title>
<path fill="none" stroke="#777777" stroke-width="2" d="M317.28,-800.29C182.6,-784.51 61.91,-764.02 40.99,-740 -19.42,-670.61 -6.86,-611.57 40.99,-533 174.81,-313.29 325.77,-364.86 578.99,-319.5 644.17,-307.82 714.22,-296.08 780.78,-285.29"/>
<polygon fill="#777777" stroke="#777777" stroke-width="2" points="781.3,-288.75 790.62,-283.7 780.19,-281.84 781.3,-288.75"/>
<text text-anchor="middle" x="165.9" y="-514.55" font-family="Segoe UI" font-size="11.00"> Pakiet stężenia chemiczno&#45;liczbowego (V,F,S)</text>
</g>
<!-- F_AFF&#45;&gt;DynamicPrompt -->
<g id="edge7" class="edge">
<title>F_AFF&#45;&gt;DynamicPrompt</title>
<path fill="none" stroke="#d32f2f" stroke-width="3" d="M325.78,-553.29C372.55,-492.89 448.64,-407.26 534.99,-359.5 609.35,-318.37 696.62,-291.22 779.43,-273.3"/>
<polygon fill="#d32f2f" stroke="#d32f2f" stroke-width="3" points="779.97,-276.77 789.04,-271.28 778.53,-269.92 779.97,-276.77"/>
<text text-anchor="middle" x="635.49" y="-419.3" font-family="Segoe UI" font-size="11.00"> Natychmiast zabarwia polecenia do Kory</text>
</g>
<!-- Engines -->
<g id="node7" class="node">
<title>Engines</title>
<polygon fill="#f3e5f5" stroke="none" points="754.37,-359.5 754.37,-485 1413.62,-485 1413.62,-359.5 754.37,-359.5"/>
<polygon fill="#ce93d8" stroke="none" points="754.37,-447.5 754.37,-485 1413.62,-485 1413.62,-447.5 754.37,-447.5"/>
<polygon fill="none" stroke="#ba68c8" points="754.37,-447.5 754.37,-485 1413.62,-485 1413.62,-447.5 754.37,-447.5"/>
<text text-anchor="start" x="951.99" y="-463.7" font-family="Segoe UI" font-weight="bold" font-size="14.00">Silniki Wewnętrzne &amp; Autonomia (W tle)</text>
<polygon fill="none" stroke="#ba68c8" points="754.37,-359.5 754.37,-447.5 1413.62,-447.5 1413.62,-359.5 754.37,-359.5"/>
<text text-anchor="start" x="839.87" y="-426.2" font-family="Segoe UI" font-weight="bold" font-size="14.00">• DualProcessingEngine: </text>
<text text-anchor="start" x="1000.37" y="-426.2" font-family="Segoe UI" font-size="14.00"> Bierze dwa mocno ze sobą sprzeczne pojęcia z Grafu</text>
<text text-anchor="start" x="818.87" y="-412.2" font-family="Segoe UI" font-size="14.00">i syntetyzuje je (łączy w jeden o wyższym poziomie abstrakcji), uwalniając tarcia F_cog.</text>
<text text-anchor="start" x="763.37" y="-398.2" font-family="Segoe UI" font-weight="bold" font-size="14.00">• Dream / Meditation Engine: </text>
<text text-anchor="start" x="957.62" y="-398.2" font-family="Segoe UI" font-size="14.00"> Kiedy F niemal eksploduje i spada witalność V(t) – inicjuje Snucie Myśli.</text>
<text text-anchor="start" x="846.62" y="-384.2" font-family="Segoe UI" font-size="14.00">Oddziela bota od Użytkownika na kilka tur by przetarmosić brudy logiki w tło.</text>
<text text-anchor="start" x="792.99" y="-370.2" font-family="Segoe UI" font-weight="bold" font-size="14.00">• DevelopmentEngine: </text>
<text text-anchor="start" x="942.24" y="-370.2" font-family="Segoe UI" font-size="14.00"> Powoduje &quot;starzenie się kognicyjne&quot; bota przy każdym uruchomieniu.</text>
</g>
<!-- F_COG&#45;&gt;Engines -->
<g id="edge5" class="edge">
<title>F_COG&#45;&gt;Engines</title>
<path fill="none" stroke="#1976d2" stroke-width="3" d="M732.17,-553.09C735.72,-537.29 742.12,-521.71 753.24,-510 759.64,-503.26 769.43,-496.87 781.67,-490.85"/>
<polygon fill="#1976d2" stroke="#1976d2" stroke-width="3" points="782.9,-494.14 790.56,-486.82 780.01,-487.76 782.9,-494.14"/>
<text text-anchor="middle" x="909.62" y="-514.55" font-family="Segoe UI" font-size="11.00"> Zbyt duża udręka wymusza odpalenie logiki w tle (Syntezy/Snu)</text>
</g>
<!-- F_AXIO&#45;&gt;Engines -->
<g id="edge6" class="edge">
<title>F_AXIO&#45;&gt;Engines</title>
<path fill="none" stroke="#388e3c" stroke-width="3" d="M1099.81,-553.12C1092.08,-544.55 1085.35,-535.17 1080.24,-525 1076.21,-516.96 1073.93,-508.11 1072.86,-499.07"/>
<polygon fill="#388e3c" stroke="#388e3c" stroke-width="3" points="1076.37,-499.15 1072.35,-489.35 1069.38,-499.52 1076.37,-499.15"/>
<text text-anchor="middle" x="1233.62" y="-514.55" font-family="Segoe UI" font-size="11.00"> Utrata pewności narzuca poszukiwania filozoficzne wewnętrze</text>
</g>
<!-- Memory -->
<g id="node6" class="node">
<title>Memory</title>
<polygon fill="#fffde7" stroke="none" points="1483.62,-560 1483.62,-685.5 2084.37,-685.5 2084.37,-560 1483.62,-560"/>
<polygon fill="#fff59d" stroke="none" points="1483.62,-648 1483.62,-685.5 2084.37,-685.5 2084.37,-648 1483.62,-648"/>
<polygon fill="none" stroke="#fff176" points="1483.62,-648 1483.62,-685.5 2084.37,-685.5 2084.37,-648 1483.62,-648"/>
<text text-anchor="start" x="1698.87" y="-664.2" font-family="Segoe UI" font-weight="bold" font-size="14.00">Pamięć i Baza Kognitywna</text>
<polygon fill="none" stroke="#fff176" points="1483.62,-560 1483.62,-648 2084.37,-648 2084.37,-560 1483.62,-560"/>
<text text-anchor="start" x="1599.12" y="-626.7" font-family="Segoe UI" font-weight="bold" font-size="14.00">1. Krótkotrwała Myśl: </text>
<text text-anchor="start" x="1742.37" y="-626.7" font-family="Segoe UI" font-size="14.00"> Ostatni bufor wiadomości i operacji.</text>
<text text-anchor="start" x="1493.74" y="-612.7" font-family="Segoe UI" font-weight="bold" font-size="14.00">2. Pamięć Epok (Synth): </text>
<text text-anchor="start" x="1650.49" y="-612.7" font-family="Segoe UI" font-size="14.00"> Po osiągnięciu szumu, bot pisze kronikę upraszczając długą historię.</text>
<text text-anchor="start" x="1543.24" y="-598.7" font-family="Segoe UI" font-weight="bold" font-size="14.00">3. P. Asocjacyjna (RAG Model): </text>
<text text-anchor="start" x="1744.99" y="-598.7" font-family="Segoe UI" font-size="14.00"> Wczytana w wektory wiedza i notatnik świata.</text>
<text text-anchor="start" x="1492.62" y="-584.7" font-family="Segoe UI" font-weight="bold" font-size="14.00">4. Dynamiczny Graf (Konstelacje): </text>
<text text-anchor="start" x="1714.62" y="-584.7" font-family="Segoe UI" font-size="14.00"> Twór topologiczny. Zawiera Fundamenty DNA tożsamości.</text>
<text text-anchor="start" x="1563.12" y="-570.7" font-family="Segoe UI" font-style="italic" font-size="14.00">&#45; Posiada mechanizm uwiądu (Rozpad) &#45; nieużywane koncepty wymierają.</text>
</g>
<!-- Memory&#45;&gt;Engines -->
<g id="edge8" class="edge">
<title>Memory&#45;&gt;Engines</title>
<path fill="none" stroke="#777777" stroke-width="2" d="M1566.57,-556.72C1535.3,-548.24 1503.41,-540.06 1472.99,-533 1453.42,-528.46 1447.78,-530.63 1428.49,-525 1411.66,-520.09 1408.57,-515.72 1391.99,-510 1370.84,-502.7 1348.71,-495.55 1326.44,-488.68"/>
<polygon fill="#777777" stroke="#777777" stroke-width="2" points="1565.49,-560.05 1576.06,-559.31 1567.34,-553.3 1565.49,-560.05"/>
<polygon fill="#777777" stroke="#777777" stroke-width="2" points="1327.54,-485.36 1316.96,-485.78 1325.5,-492.05 1327.54,-485.36"/>
<text text-anchor="middle" x="1612.24" y="-514.55" font-family="Segoe UI" font-size="11.00"> Silniki Autonomiczne modyfikują i czytają Pule DNA / Przemyślenia z Grafu</text>
</g>
<!-- Memory&#45;&gt;DynamicPrompt -->
<g id="edge11" class="edge">
<title>Memory&#45;&gt;DynamicPrompt</title>
<path fill="none" stroke="#fbc02d" stroke-width="3" d="M1808.2,-560.22C1811.2,-542.92 1810.44,-524.81 1800.99,-510 1712.12,-370.72 1540.86,-302.67 1388.01,-269.53"/>
<polygon fill="#fbc02d" stroke="#fbc02d" stroke-width="3" points="1389.17,-266.2 1378.66,-267.56 1387.73,-273.05 1389.17,-266.2"/>
<text text-anchor="middle" x="1911.65" y="-426.8" font-family="Segoe UI" font-size="11.00"> Zassanie skojarzonych wektorowo wspomnień z RAG</text>
<text text-anchor="middle" x="1911.65" y="-411.8" font-family="Segoe UI" font-size="11.00">oraz synopis dawnych epok</text>
</g>
<!-- Engines&#45;&gt;DynamicPrompt -->
<g id="edge9" class="edge">
<title>Engines&#45;&gt;DynamicPrompt</title>
<path fill="none" stroke="#777777" stroke-width="2" d="M1083.99,-359.63C1083.99,-342.79 1083.99,-324.43 1083.99,-307.21"/>
<polygon fill="#777777" stroke="#777777" stroke-width="2" points="1087.49,-307.35 1083.99,-297.35 1080.49,-307.35 1087.49,-307.35"/>
<text text-anchor="middle" x="1232.87" y="-324.05" font-family="Segoe UI" font-size="11.00"> Wymuszenie kontekstu np. efektów Ewolucji po /meditation</text>
</g>
<!-- LLM -->
<g id="node9" class="node">
<title>LLM</title>
<polygon fill="#e0f7fa" stroke="none" points="1287.24,0 1287.24,-115.5 1936.74,-115.5 1936.74,0 1287.24,0"/>
<polygon fill="#80deea" stroke="none" points="1287.24,-76.5 1287.24,-115.5 1936.74,-115.5 1936.74,-76.5 1287.24,-76.5"/>
<polygon fill="none" stroke="#4dd0e1" points="1287.24,-76.5 1287.24,-115.5 1936.74,-115.5 1936.74,-76.5 1287.24,-76.5"/>
<text text-anchor="start" x="1442.87" y="-93.25" font-family="Segoe UI" font-weight="bold" font-size="15.00">Kora Językowo&#45;Generatywna (Lokalne LLM API)</text>
<polygon fill="none" stroke="#4dd0e1" points="1287.24,0 1287.24,-76.5 1936.74,-76.5 1936.74,0 1287.24,0"/>
<text text-anchor="start" x="1339.74" y="-54.2" font-family="Segoe UI" font-size="14.00">Kalkulator prawdopodobieństw tekstowych. Rozwiązuje pakiety od &quot;Architekta Promptu&quot;.</text>
<text text-anchor="start" x="1296.24" y="-34.7" font-family="Segoe UI" font-size="14.00">Produkuje finalne strumienie dyskusji. Używany również skrypcie by samemu sobie wydawać komendy</text>
<text text-anchor="start" x="1411.74" y="-15.2" font-family="Segoe UI" font-size="14.00">i zastanowienia w trakcie Snu/Trawienia i procesów Pętli Ewolucji.</text>
</g>
<!-- DynamicPrompt&#45;&gt;LLM -->
<g id="edge12" class="edge">
<title>DynamicPrompt&#45;&gt;LLM</title>
<path fill="none" stroke="#777777" stroke-width="2" d="M1250.33,-180.5C1308.02,-161.08 1372.95,-139.22 1431.72,-119.44"/>
<polygon fill="#777777" stroke="#777777" stroke-width="2" points="1432.54,-122.86 1440.9,-116.35 1430.31,-116.22 1432.54,-122.86"/>
<text text-anchor="middle" x="1461.7" y="-145.05" font-family="Segoe UI" font-size="11.00"> System Prompt ze wstrzyknięciem Ciała</text>
</g>
<!-- LLM&#45;&gt;Input -->
<g id="edge13" class="edge">
<title>LLM&#45;&gt;Input</title>
<path fill="none" stroke="#4dd0e1" stroke-width="3" stroke-dasharray="5,2" d="M1934.49,-115.41C2043.89,-144.02 2138.99,-184 2138.99,-236.5 2138.99,-837.75 2138.99,-837.75 2138.99,-837.75 2138.99,-943.33 1835.75,-983.01 1627.31,-997.82"/>
<polygon fill="#4dd0e1" stroke="#4dd0e1" stroke-width="3" points="1627.36,-994.31 1617.63,-998.49 1627.84,-1001.29 1627.36,-994.31"/>
<text text-anchor="middle" x="2230.87" y="-514.55" font-family="Segoe UI" font-size="11.00"> Zwraca wynikową interakcję do Czata</text>
</g>
</g>
</svg>
